{"title":"Kick-Ass.2010.DVDRiP.x264.AC3.NORDIC.mkv.Zen_Bud","uid":5815898,"size":1452362122,"categoryP":"video","categoryS":"movies","magnet":"?xt=urn:btih:c9d3465315712ffc011c862dc8ca4560b77b1207&amp;dn=Kick-Ass.2010.DVDRiP.x264.AC3.NORDIC.mkv.Zen_Bud&amp;tr=udp%3A%2F%2Ftracker.openbittorrent.com%3A80&amp;tr=udp%3A%2F%2Fopen.demonii.com%3A1337&amp;tr=udp%3A%2F%2Ftracker.coppersurfer.tk%3A6969&amp;tr=udp%3A%2F%2Fexodus.desync.com%3A6969","seeders":0,"leechers":0,"uploader":"Zen_Bud","files":-1,"time":1283821496,"description":"\n**** Kick-Ass.2010.DVDRiP.x264.AC3.NORDIC.mkv.Zen_Bud ****\n\n\nFormat                           : Matroska\nFile size                        : 1.35 GiB\nDuration                         : 1h 52mn\nOverall bit rate                 : 1 720 Kbps\nWriting application              : HandBrake svn3506\nWriting library                  : libmkv 0.6.4.1\n\nVideo\nFormat                           : AVC\nDuration                         : 1h 52mn\nBit rate                         : 1 238 Kbps\nWidth                            : 720 pixels\nHeight                           : 428 pixels\nDisplay aspect ratio             : 2.35:1\nStream size                      : 997 MiB (72%)\nWriting library                  : x264 core 104\n\nAudio\n\nFormat                           : AC-3\nDuration                         : 1h 52mn\nBit rate                         : 448 Kbps\nChannel(s)                       : 6 channels\nChannel positions                : Front: L C R, Side: L R, LFE\nSampling rate                    : 48.0 KHz\nBit depth                        : 16 bits\nStream size                      : 361 MiB (26%)\nLanguage                         : English\n\nText #1\nLanguage                         : Danish\n\nText #2\nLanguage                         : Finnish\n\nText #3\nLanguage                         : Norwegian\n\nText #4\nLanguage                         : Swedish\n\nMenu\n00:00:00.000                     : Chapter  1\n00:10:00.000                     : Chapter  2\n\n\n","torrent":{"xt":"urn:btih:c9d3465315712ffc011c862dc8ca4560b77b1207","amp;dn":"Kick-Ass.2010.DVDRiP.x264.AC3.NORDIC.mkv.Zen_Bud","amp;tr":["udp%3A%2F%2Ftracker.openbittorrent.com%3A80","udp%3A%2F%2Fopen.demonii.com%3A1337","udp%3A%2F%2Ftracker.coppersurfer.tk%3A6969","udp%3A%2F%2Fexodus.desync.com%3A6969"],"infoHash":"c9d3465315712ffc011c862dc8ca4560b77b1207","infoHashBuffer":{"type":"Buffer","data":[201,211,70,83,21,113,47,252,1,28,134,45,200,202,69,96,183,123,18,7]},"announce":[],"urlList":[]}}